<mxfile host="app.diagrams.net" agent="Mozilla/5.0 (Windows NT 10.0; Win64; x64) AppleWebKit/537.36 (KHTML, like Gecko) Chrome/136.0.0.0 Safari/537.36 Edg/136.0.0.0" version="27.0.4">
  <diagram name="Pagina-1" id="WDSXKmSR1G724t2VgSTn">
    <mxGraphModel dx="1418" dy="786" grid="1" gridSize="10" guides="1" tooltips="1" connect="1" arrows="1" fold="1" page="1" pageScale="1" pageWidth="827" pageHeight="1169" math="0" shadow="0">
      <root>
        <mxCell id="0" />
        <mxCell id="1" parent="0" />
        <mxCell id="r3TJH_BqJOBHQU3mLfS9-1" value="" style="whiteSpace=wrap;html=1;aspect=fixed;fillColor=#d5e8d4;strokeColor=#82b366;" vertex="1" parent="1">
          <mxGeometry x="374" y="360" width="80" height="80" as="geometry" />
        </mxCell>
        <mxCell id="r3TJH_BqJOBHQU3mLfS9-2" value="Central File" style="text;html=1;align=center;verticalAlign=middle;whiteSpace=wrap;rounded=0;" vertex="1" parent="1">
          <mxGeometry x="379" y="385" width="70" height="30" as="geometry" />
        </mxCell>
        <mxCell id="r3TJH_BqJOBHQU3mLfS9-3" value="" style="shape=cylinder3;whiteSpace=wrap;html=1;boundedLbl=1;backgroundOutline=1;size=15;" vertex="1" parent="1">
          <mxGeometry x="600" y="360" width="60" height="80" as="geometry" />
        </mxCell>
        <mxCell id="r3TJH_BqJOBHQU3mLfS9-4" value="Sumatra" style="whiteSpace=wrap;html=1;aspect=fixed;fillColor=#dae8fc;strokeColor=#6c8ebf;" vertex="1" parent="1">
          <mxGeometry x="590" y="160" width="80" height="80" as="geometry" />
        </mxCell>
        <mxCell id="r3TJH_BqJOBHQU3mLfS9-5" value="" style="endArrow=classic;html=1;rounded=0;" edge="1" parent="1">
          <mxGeometry width="50" height="50" relative="1" as="geometry">
            <mxPoint x="630" y="260" as="sourcePoint" />
            <mxPoint x="630" y="340" as="targetPoint" />
          </mxGeometry>
        </mxCell>
        <mxCell id="r3TJH_BqJOBHQU3mLfS9-8" value="Project data gets downloaded from Sumatra and is put in import map" style="text;html=1;align=center;verticalAlign=middle;whiteSpace=wrap;rounded=0;" vertex="1" parent="1">
          <mxGeometry x="640" y="290" width="180" height="30" as="geometry" />
        </mxCell>
        <mxCell id="r3TJH_BqJOBHQU3mLfS9-10" value="" style="endArrow=classic;html=1;rounded=0;" edge="1" parent="1">
          <mxGeometry width="50" height="50" relative="1" as="geometry">
            <mxPoint x="580" y="400" as="sourcePoint" />
            <mxPoint x="470" y="400" as="targetPoint" />
          </mxGeometry>
        </mxCell>
        <mxCell id="r3TJH_BqJOBHQU3mLfS9-11" value="&lt;font style=&quot;font-size: 11px;&quot;&gt;Projectdata Excel&lt;/font&gt;" style="text;html=1;align=center;verticalAlign=middle;whiteSpace=wrap;rounded=0;" vertex="1" parent="1">
          <mxGeometry x="610" y="390" width="40" height="30" as="geometry" />
        </mxCell>
        <mxCell id="r3TJH_BqJOBHQU3mLfS9-12" value="Tool uploads data in Central file" style="text;html=1;align=center;verticalAlign=middle;whiteSpace=wrap;rounded=0;fillColor=#ffe6cc;strokeColor=#d79b00;" vertex="1" parent="1">
          <mxGeometry x="480" y="360" width="100" height="30" as="geometry" />
        </mxCell>
        <mxCell id="r3TJH_BqJOBHQU3mLfS9-13" value="Tool" style="rounded=0;whiteSpace=wrap;html=1;fillColor=#ffe6cc;strokeColor=#d79b00;" vertex="1" parent="1">
          <mxGeometry x="354" y="210" width="120" height="60" as="geometry" />
        </mxCell>
        <mxCell id="r3TJH_BqJOBHQU3mLfS9-14" value="" style="endArrow=classic;startArrow=classic;html=1;rounded=0;" edge="1" parent="1">
          <mxGeometry width="50" height="50" relative="1" as="geometry">
            <mxPoint x="413" y="350" as="sourcePoint" />
            <mxPoint x="413" y="280" as="targetPoint" />
          </mxGeometry>
        </mxCell>
        <mxCell id="r3TJH_BqJOBHQU3mLfS9-15" value="Tool automatically draws conclusions from conditions" style="text;html=1;align=center;verticalAlign=middle;whiteSpace=wrap;rounded=0;fillColor=#ffe6cc;strokeColor=#d79b00;" vertex="1" parent="1">
          <mxGeometry x="430" y="300" width="150" height="30" as="geometry" />
        </mxCell>
        <mxCell id="r3TJH_BqJOBHQU3mLfS9-16" value="Projectleider" style="shape=umlActor;verticalLabelPosition=bottom;verticalAlign=top;html=1;outlineConnect=0;" vertex="1" parent="1">
          <mxGeometry x="400" y="530" width="30" height="60" as="geometry" />
        </mxCell>
        <mxCell id="r3TJH_BqJOBHQU3mLfS9-17" value="" style="endArrow=classic;startArrow=classic;html=1;rounded=0;" edge="1" parent="1">
          <mxGeometry width="50" height="50" relative="1" as="geometry">
            <mxPoint x="414.5" y="520" as="sourcePoint" />
            <mxPoint x="414.5" y="450" as="targetPoint" />
          </mxGeometry>
        </mxCell>
        <mxCell id="r3TJH_BqJOBHQU3mLfS9-19" value="New information is updated in Central File. Some information will remain.&amp;nbsp;" style="text;html=1;align=center;verticalAlign=middle;whiteSpace=wrap;rounded=0;fillColor=#ffe6cc;strokeColor=#d79b00;" vertex="1" parent="1">
          <mxGeometry x="430" y="470" width="210" height="30" as="geometry" />
        </mxCell>
      </root>
    </mxGraphModel>
  </diagram>
</mxfile>
